<?xml version="1.0" encoding="UTF-8"?>
<svg id="Layer_1" data-name="Layer 1" xmlns="http://www.w3.org/2000/svg" viewBox="0 0 1132.57 190.17">
  <defs>
    <style>
      .cls-1 {
        fill: #48aaf8;
      }
    </style>
  </defs>
  <g>
    <path d="M14.63,141.75L64.77,9.99h23.61l50.14,131.76h-23.24l-10.43-27.27H48.3l-10.43,27.27H14.63Zm82.53-48.86l-20.5-53.98-20.68,53.98h41.17Z"/>
    <path d="M187.57,48.42c11.53,0,22.14,6.04,28.18,13.54v-11.71h21.59V182.01h-21.59v-51.79c-6.04,7.32-16.65,13.36-28.18,13.36-26.17,0-45.38-21.41-45.38-47.58s19.21-47.58,45.38-47.58Zm-23.79,47.58c0,14.27,11.71,25.99,25.99,25.99s25.99-11.71,25.99-25.99-11.71-25.99-25.99-25.99-25.99,11.71-25.99,25.99Z"/>
    <path d="M280.16,50.25v50.51c0,15.19,8.05,22.51,19.58,22.51,12.44,0,22.14-9.33,22.14-23.61V50.25h21.59v91.5h-21.59v-9.88c-6.77,7.14-16.65,11.71-27.45,11.71-21.23,0-35.87-15.01-35.87-38.25V50.25h21.59Z"/>
    <path d="M404.6,48.42c11.53,0,22.14,6.04,28.18,13.18v-11.35h21.59v91.5h-21.59v-11.71c-6.04,7.5-16.65,13.54-28.18,13.54-26.17,0-45.38-21.41-45.38-47.58s19.21-47.58,45.38-47.58Zm-23.79,47.58c0,14.27,11.71,25.99,25.99,25.99s25.99-11.71,25.99-25.99-11.71-25.99-25.99-25.99-25.99,11.71-25.99,25.99Z"/>
    <path d="M475.61,141.75V50.25h21.59v10.43c6.22-7.32,15.74-12.26,27.45-12.26v20.5c-.73-.18-1.65-.18-2.38-.18-13.73,0-25.07,9.7-25.07,23.61v49.41h-21.59Z"/>
    <path d="M574.79,48.42c11.53,0,22.14,6.04,28.18,13.18v-11.35h21.59v91.5h-21.59v-11.71c-6.04,7.5-16.65,13.54-28.18,13.54-26.17,0-45.38-21.41-45.38-47.58s19.21-47.58,45.38-47.58Zm-23.79,47.58c0,14.27,11.71,25.99,25.99,25.99s25.99-11.71,25.99-25.99-11.71-25.99-25.99-25.99-25.99,11.71-25.99,25.99Z"/>
    <path d="M645.79,141.75V50.25h21.59v9.88c6.77-7.14,16.65-11.71,27.45-11.71,21.23,0,35.87,15.01,35.87,38.25v55.08h-21.59v-50.51c0-15.37-8.05-22.51-19.58-22.51-12.44,0-22.14,9.15-22.14,23.61v49.41h-21.59Z"/>
    <path d="M753.4,50.25c4.76,0,8.05-3.11,8.05-7.87V25.73h21.59v24.52h23.24v21.59h-23.24v32.76c0,14.46,2.2,18.12,10.98,18.12,4.03,0,7.69-.55,12.26-1.46v20.5c-4.21,1.1-10.25,1.83-15.19,1.83-20.86,0-29.65-9.52-29.65-32.57v-39.16h-16.84v-21.59h8.78Z"/>
    <path d="M823.49,141.75V9.99h21.59V60.13c6.77-7.14,16.65-11.71,27.45-11.71,21.23,0,35.87,15.01,35.87,38.25v55.08h-21.59v-50.51c0-15.37-8.05-22.51-19.58-22.51-12.44,0-22.14,9.15-22.14,23.61v49.41h-21.59Z"/>
  </g>
  <g>
    <path class="cls-1" d="M980.15,9.99h18.85V141.75h-21.59V35.43l-24.52,13.73-9.52-19.03,36.78-20.13Z"/>
    <path class="cls-1" d="M1019.49,75.87c0-42.27,19.58-67.71,51.97-67.71s51.97,25.44,51.97,67.71-19.4,67.71-51.97,67.71-51.97-25.44-51.97-67.71Zm51.97,46.12c19.95,0,30.38-15.74,30.38-46.12s-10.43-46.12-30.38-46.12-30.38,15.74-30.38,46.12,10.43,46.12,30.38,46.12Z"/>
  </g>
</svg>